<svg width="80" height="80" viewBox="0 0 80 80" fill="none" xmlns="http://www.w3.org/2000/svg">
<mask id="path-1-inside-1" fill="white">
<path fill-rule="evenodd" clip-rule="evenodd" d="M39.0272 39.946C46.1919 39.946 52.0001 34.1378 52.0001 26.973C52.0001 19.8082 46.1919 14 39.0272 14C33.6051 14 28.96 17.3263 27.021 22.0497C25.498 21.0608 23.6809 20.4865 21.7297 20.4865C16.3562 20.4865 12 24.8426 12 30.2162C12 35.5898 16.3562 39.9459 21.7297 39.9459L21.7298 39.9459H39.0015C39.0101 39.9459 39.0186 39.946 39.0272 39.946Z"/>
</mask>
<path d="M27.021 22.0497L25.3874 24.5658L28.4222 26.5362L29.7963 23.1889L27.021 22.0497ZM21.7297 39.9459L21.9868 36.957L21.8585 36.9459H21.7297V39.9459ZM21.7298 39.9459L21.4727 42.9349L21.601 42.9459H21.7298V39.9459ZM39.0015 39.9459L39.0076 36.9459H39.0015V39.9459ZM49.0001 26.973C49.0001 32.4809 44.5351 36.946 39.0272 36.946V42.946C47.8488 42.946 55.0001 35.7946 55.0001 26.973H49.0001ZM39.0272 17C44.5351 17 49.0001 21.4651 49.0001 26.973H55.0001C55.0001 18.1513 47.8488 11 39.0272 11V17ZM29.7963 23.1889C31.2892 19.5522 34.8637 17 39.0272 17V11C32.3465 11 26.6307 15.1005 24.2458 20.9104L29.7963 23.1889ZM28.6547 19.5335C26.66 18.2384 24.2781 17.4865 21.7297 17.4865V23.4865C23.0837 23.4865 24.3359 23.8832 25.3874 24.5658L28.6547 19.5335ZM21.7297 17.4865C14.6993 17.4865 9 23.1858 9 30.2162H15C15 26.4995 18.013 23.4865 21.7297 23.4865V17.4865ZM9 30.2162C9 37.2466 14.6993 42.9459 21.7297 42.9459V36.9459C18.013 36.9459 15 33.9329 15 30.2162H9ZM21.4726 42.9349L21.4727 42.9349L21.9869 36.957L21.9868 36.957L21.4726 42.9349ZM21.7298 42.9459H39.0015V36.9459H21.7298V42.9459ZM39.0272 36.946C39.0204 36.946 39.0139 36.946 39.0076 36.9459L38.9955 42.9459C39.0063 42.9459 39.0168 42.946 39.0272 42.946V36.946Z" fill="white" fill-opacity="0.4" mask="url(#path-1-inside-1)"/>
<rect x="9.5" y="48.5" width="62" height="18" rx="4.5" stroke="white" stroke-opacity="0.4" stroke-width="3"/>
<circle cx="18" cy="55" r="2" fill="white" fill-opacity="0.4"/>
<circle cx="24" cy="55" r="2" fill="white" fill-opacity="0.4"/>
<circle cx="30" cy="55" r="2" fill="white" fill-opacity="0.4"/>
<circle cx="18" cy="61" r="2" fill="white" fill-opacity="0.4"/>
<circle cx="24" cy="61" r="2" fill="white" fill-opacity="0.4"/>
<circle cx="30" cy="61" r="2" fill="white" fill-opacity="0.4"/>
<rect x="36" y="60" width="14" height="3" rx="1.5" fill="white" fill-opacity="0.4"/>
<rect x="56" y="53" width="3" height="10" rx="1.5" fill="white" fill-opacity="0.4"/>
<rect x="62" y="53" width="3" height="10" rx="1.5" fill="white" fill-opacity="0.4"/>
</svg>
