<svg width="80" height="80" viewBox="0 0 80 80" fill="none" xmlns="http://www.w3.org/2000/svg">
<path d="M43.0105 47.4387L55 41.6649L66.9895 47.4387L69.9506 60.4124L61.6537 70.8165H48.3463L40.0494 60.4124L43.0105 47.4387Z" stroke="white" stroke-opacity="0.4" stroke-width="3"/>
<path fill-rule="evenodd" clip-rule="evenodd" d="M26 37C33.1797 37 39 31.1797 39 24C39 22.8056 38.8389 21.6488 38.5373 20.5501L41.2063 19.0092C41.7214 20.5796 42 22.2573 42 24C42 32.8366 34.8366 40 26 40C21.2185 40 16.9268 37.9026 13.9949 34.5775L16.6578 33.0401C19.0212 35.482 22.3333 37 26 37ZM38.4791 13.9854C35.5465 10.3359 31.0461 8 26 8C17.1634 8 10 15.1634 10 24C10 26.0024 10.3678 27.9188 11.0396 29.6855L13.6802 28.161C13.2391 26.8546 13 25.4552 13 24C13 16.8203 18.8203 11 26 11C29.9335 11 33.459 12.747 35.8429 15.5074L38.4791 13.9854Z" fill="white" fill-opacity="0.4"/>
<path d="M10.6831 40.1738C10.7791 39.351 10.1899 38.6061 9.36706 38.5101C8.54421 38.4141 7.79934 39.0033 7.70334 39.8262L10.6831 40.1738ZM35.1932 71.5C36.0217 71.5 36.6932 70.8284 36.6932 70C36.6932 69.1716 36.0217 68.5 35.1932 68.5V71.5ZM7.70334 39.8262C7.09405 45.0487 7.70568 52.9032 11.6146 59.5135C15.5906 66.2373 22.8833 71.5 35.1932 71.5V68.5C23.9031 68.5 17.6126 63.7627 14.1969 57.9865C10.7141 52.0968 10.1258 44.9513 10.6831 40.1738L7.70334 39.8262Z" fill="white" fill-opacity="0.4"/>
<path d="M70.5101 42.8262C70.4141 43.649 71.0033 44.3939 71.8262 44.4899C72.649 44.5859 73.3939 43.9967 73.4899 43.1738L70.5101 42.8262ZM46 11.5C45.1716 11.5 44.5 12.1716 44.5 13C44.5 13.8284 45.1716 14.5 46 14.5V11.5ZM73.4899 43.1738C74.0992 37.9513 73.4876 30.0968 69.5787 23.4865C65.6027 16.7627 58.3099 11.5 46 11.5V14.5C57.2901 14.5 63.5807 19.2373 66.9964 25.0135C70.4791 30.9032 71.0675 38.0487 70.5101 42.8262L73.4899 43.1738Z" fill="white" fill-opacity="0.4"/>
</svg>
