<svg width="80" height="80" viewBox="0 0 80 80" fill="none" xmlns="http://www.w3.org/2000/svg">
<path fill-rule="evenodd" clip-rule="evenodd" d="M65 23H62V20H65C69.4183 20 73 23.5817 73 28V31H70V28C70 25.2386 67.7614 23 65 23ZM70 49H73V52C73 56.4183 69.4183 60 65 60H62V57H65C67.7614 57 70 54.7614 70 52V49ZM10 49H7V52C7 56.4183 10.5817 60 15 60H18V57H15C12.2386 57 10 54.7614 10 52V49ZM7 31H10V28C10 25.2386 12.2386 23 15 23H18V20H15C10.5817 20 7 23.5817 7 28V31Z" fill="white" fill-opacity="0.4"/>
<rect x="26.5" y="9.5" width="27" height="61" rx="6.5" stroke="white" stroke-opacity="0.4" stroke-width="3"/>
<path d="M39.456 47.28C40.224 47.28 40.864 47.2266 41.376 47.12C41.9094 46.992 42.3254 46.8213 42.624 46.608C42.9227 46.3733 43.136 46.1066 43.264 45.808C43.392 45.488 43.456 45.1466 43.456 44.784C43.456 44.2506 43.328 43.8026 43.072 43.44C42.816 43.056 42.464 42.7253 42.016 42.448C41.5894 42.1493 41.0987 41.8933 40.544 41.68C39.9894 41.4453 39.4134 41.2213 38.816 41.008C38.24 40.7946 37.664 40.56 37.088 40.304C36.5334 40.048 36.032 39.7386 35.584 39.376C35.1574 38.992 34.8054 38.544 34.528 38.032C34.2507 37.4986 34.112 36.848 34.112 36.08C34.112 34.7146 34.5174 33.6053 35.328 32.752C36.1387 31.8986 37.312 31.3546 38.848 31.12V27.824H41.216V31.024C42.0694 31.0666 42.848 31.1733 43.552 31.344C44.2774 31.4933 44.8534 31.6533 45.28 31.824L44.736 34.064C44.288 33.8933 43.7227 33.7226 43.04 33.552C42.3574 33.36 41.4934 33.264 40.448 33.264C39.296 33.264 38.4107 33.4773 37.792 33.904C37.1947 34.3306 36.896 34.9493 36.896 35.76C36.896 36.208 36.9814 36.5813 37.152 36.88C37.344 37.1786 37.6107 37.4453 37.952 37.68C38.2934 37.9146 38.688 38.128 39.136 38.32C39.6054 38.512 40.128 38.7146 40.704 38.928C41.4294 39.2053 42.1334 39.504 42.816 39.824C43.4987 40.1226 44.096 40.4853 44.608 40.912C45.12 41.3386 45.5254 41.8506 45.824 42.448C46.144 43.0453 46.304 43.76 46.304 44.592C46.304 45.8506 45.888 46.9173 45.056 47.792C44.224 48.6666 42.944 49.2106 41.216 49.424V53.104H38.848V49.52C37.504 49.4773 36.416 49.328 35.584 49.072C34.752 48.816 34.1334 48.5706 33.728 48.336L34.432 46.128C35.008 46.4053 35.6907 46.672 36.48 46.928C37.2694 47.1626 38.2614 47.28 39.456 47.28Z" fill="white" fill-opacity="0.4"/>
</svg>
